ModelForces
version=1
nRows=4
nColumns=155
inDegrees=no

This file contains the forces exerted on a model during a simulation.

A force is a generalized force, meaning that it can be either a force (N) or a torque (Nm).

Units are S.I. units (second, meters, Newtons, ...)
Angles are in degrees.

endheader
time	glut_med1_r	glut_med2_r	glut_med3_r	glut_min1_r	glut_min2_r	glut_min3_r	semimem_r	semiten_r	bifemlh_r	bifemsh_r	sar_r	add_long_r	add_brev_r	add_mag1_r	add_mag2_r	add_mag3_r	tfl_r	pect_r	grac_r	glut_max1_r	glut_max2_r	glut_max3_r	iliacus_r	psoas_r	quad_fem_r	gem_r	peri_r	rect_fem_r	vas_med_r	vas_int_r	vas_lat_r	med_gas_r	lat_gas_r	soleus_r	tib_post_r	flex_dig_r	flex_hal_r	tib_ant_r	per_brev_r	per_long_r	per_tert_r	ext_dig_r	ext_hal_r	glut_med1_l	glut_med2_l	glut_med3_l	glut_min1_l	glut_min2_l	glut_min3_l	semimem_l	semiten_l	bifemlh_l	bifemsh_l	sar_l	add_long_l	add_brev_l	add_mag1_l	add_mag2_l	add_mag3_l	tfl_l	pect_l	grac_l	glut_max1_l	glut_max2_l	glut_max3_l	iliacus_l	psoas_l	quad_fem_l	gem_l	peri_l	rect_fem_l	vas_med_l	vas_int_l	vas_lat_l	med_gas_l	lat_gas_l	soleus_l	tib_post_l	flex_dig_l	flex_hal_l	tib_ant_l	per_brev_l	per_long_l	per_tert_l	ext_dig_l	ext_hal_l	ercspn_r	ercspn_l	intobl_r	intobl_l	extobl_r	extobl_l	femur_lat_meniscii_r.femur_lat_r.force.X	femur_lat_meniscii_r.femur_lat_r.force.Y	femur_lat_meniscii_r.femur_lat_r.force.Z	femur_lat_meniscii_r.femur_lat_r.torque.X	femur_lat_meniscii_r.femur_lat_r.torque.Y	femur_lat_meniscii_r.femur_lat_r.torque.Z	femur_lat_meniscii_r.meniscus_lat_r.force.X	femur_lat_meniscii_r.meniscus_lat_r.force.Y	femur_lat_meniscii_r.meniscus_lat_r.force.Z	femur_lat_meniscii_r.meniscus_lat_r.torque.X	femur_lat_meniscii_r.meniscus_lat_r.torque.Y	femur_lat_meniscii_r.meniscus_lat_r.torque.Z	femur_med_meniscii_r.femur_med_r.force.X	femur_med_meniscii_r.femur_med_r.force.Y	femur_med_meniscii_r.femur_med_r.force.Z	femur_med_meniscii_r.femur_med_r.torque.X	femur_med_meniscii_r.femur_med_r.torque.Y	femur_med_meniscii_r.femur_med_r.torque.Z	femur_med_meniscii_r.meniscus_med_r.force.X	femur_med_meniscii_r.meniscus_med_r.force.Y	femur_med_meniscii_r.meniscus_med_r.force.Z	femur_med_meniscii_r.meniscus_med_r.torque.X	femur_med_meniscii_r.meniscus_med_r.torque.Y	femur_med_meniscii_r.meniscus_med_r.torque.Z	femur_med_tibia_r.tibia_upper_r.force.X	femur_med_tibia_r.tibia_upper_r.force.Y	femur_med_tibia_r.tibia_upper_r.force.Z	femur_med_tibia_r.tibia_upper_r.torque.X	femur_med_tibia_r.tibia_upper_r.torque.Y	femur_med_tibia_r.tibia_upper_r.torque.Z	femur_med_tibia_r.femur_med_r.force.X	femur_med_tibia_r.femur_med_r.force.Y	femur_med_tibia_r.femur_med_r.force.Z	femur_med_tibia_r.femur_med_r.torque.X	femur_med_tibia_r.femur_med_r.torque.Y	femur_med_tibia_r.femur_med_r.torque.Z	femur_lat_tibia_r.tibia_upper_r.force.X	femur_lat_tibia_r.tibia_upper_r.force.Y	femur_lat_tibia_r.tibia_upper_r.force.Z	femur_lat_tibia_r.tibia_upper_r.torque.X	femur_lat_tibia_r.tibia_upper_r.torque.Y	femur_lat_tibia_r.tibia_upper_r.torque.Z	femur_lat_tibia_r.femur_lat_r.force.X	femur_lat_tibia_r.femur_lat_r.force.Y	femur_lat_tibia_r.femur_lat_r.force.Z	femur_lat_tibia_r.femur_lat_r.torque.X	femur_lat_tibia_r.femur_lat_r.torque.Y	femur_lat_tibia_r.femur_lat_r.torque.Z	aACL_R	pACL_R	aPCL_R	pPCL_R	aMCL_R	mMCL_R	pMCL_R	aLCL_R	mLCL_R	pLCL_R	aPCL_L	pPCL_L	aMCL_L	aLCL_L
      0.03937380	      0.00000000	      0.00000000	      0.00000000	      5.11600539	      8.98749253	      0.00000000	      0.00000000	    273.74047575	    222.56483534	    454.36543736	    136.39337281	     20.28508423	     13.93664055	      0.00000000	      0.00000000	     10.31040513	      4.57930331	      0.00000000	    128.79822115	      0.00000000	      0.00000000	     13.51024658	     49.94143757	     44.04564562	      0.00000000	      5.99576213	      0.00000000	     37.25600868	      0.00000000	      0.00000000	      0.00000000	      0.00000000	      0.00000000	      0.00000000	     34.19129907	      0.00000000	      0.00000000	      0.00000000	     21.59897230	     46.42068535	      6.08904395	      8.84631799	      1.91150110	      0.00000000	      0.00000000	      0.00000000	      5.11600539	      8.98749253	      0.00000000	      0.00000000	     15.59686202	      0.00000000	     25.19728930	      5.14213543	     20.28508423	     13.93664055	      0.00000000	      0.00000000	     10.31040513	      8.79623770	      0.00000000	      5.37971769	      0.00000000	      0.00000000	     13.51024658	     49.94143757	     44.04564562	      0.00000000	      5.99576213	      0.00000000	     20.23442369	      0.00000000	      0.00000000	      0.00000000	      0.00000000	      0.00000000	      0.00000000	     54.18262278	      2.17767938	      0.00000000	      0.00000000	      2.33148896	     14.98066830	      4.88779784	      8.56059592	      3.48297138	     85.28272496	     85.28272496	     32.51322547	     32.51322547	     49.47645840	     49.47645840	    106.82760867	    163.36490537	     19.42097540	    -12.17257205	      2.70988803	     44.96981312	   -106.82760867	   -163.36490537	    -19.42097540	      5.31112269	     -3.14276749	     -3.58623050	     15.67436458	    141.84910278	     20.56810151	     -5.51936114	     -0.28449447	      6.90009610	    -15.67436458	   -141.84910278	    -20.56810151	     -1.85973549	      0.17745132	     -0.53846739	     23.15530794	   -717.56443170	     66.08099468	    -14.34432311	     -0.97748599	     -2.99144189	    -23.15530794	    717.56443170	    -66.08099468	     42.28214853	      1.22331183	     -4.12880607	    -50.33195165	   -214.69434399	    -50.50015007	      7.43302189	     -1.12760445	     -2.65367707	     50.33195165	    214.69434399	     50.50015007	    -26.03229835	      0.82206975	     22.48994398	     31.60261196	     36.16274915	      0.00000000	      0.00000000	      0.00000000	     -3.44363667	     10.23270219	      0.00000000	      0.00000000	      0.00000000	      0.00000000	      0.00000000	      0.00000001	      0.00000000
      0.04047707	      0.00000000	      0.00000000	      0.00000000	      6.97277649	      9.17654130	      0.00000000	      0.00000000	    273.80395213	    241.91227219	    453.87479162	    136.93641666	     20.05729448	     13.78845356	      0.00000000	      0.00000000	     10.55425340	      4.53220232	      0.00000000	    129.08817780	      0.00000000	      0.00000000	     13.51684915	     49.50796071	     43.54697872	      0.00000000	      6.04453481	      0.00000000	     40.83976385	      0.00000000	      0.00000000	      0.00000000	      0.00000000	      0.00000000	      0.00000000	     33.03787938	      0.00000000	      0.00000000	      0.00000000	     25.18002779	     51.42281826	      6.50030635	      8.81512866	      1.77803833	      0.00000000	      0.00000000	      0.00000000	      6.97277649	      9.17654130	      0.00000000	      0.00000000	     15.41509182	      0.00000000	     24.92226279	      5.08725769	     20.05729448	     13.78845356	      0.00000000	      0.00000000	     10.55425340	      8.79915379	      0.00000000	      5.32153447	      0.00000000	      0.00000000	     13.51684915	     49.50796071	     43.54697872	      0.00000000	      6.04453481	      0.00000000	     21.16902672	      0.00000000	      0.00000000	      0.00000000	      0.00000000	      0.00000000	      0.00000000	     54.65402211	      2.51680285	      0.00000000	      0.00000000	      3.04814769	     15.48584423	      5.02000433	      8.39875580	      3.31336189	     84.36773759	     84.36773759	     32.24128713	     32.24128713	     49.11271698	     49.11271698	    109.06895945	    170.68597881	     18.37782096	    -11.90401853	      2.77110171	     45.91259338	   -109.06895945	   -170.68597881	    -18.37782096	      5.46987453	     -3.21214382	     -3.63091611	     16.47611220	    141.88696711	     19.42693499	     -5.04157740	     -0.29683433	      7.17482477	    -16.47611220	   -141.88696711	    -19.42693499	     -1.89887225	      0.18701233	     -0.48648521	     27.12485721	   -709.43549553	     69.80944185	    -14.36204578	     -1.03499734	     -2.54387015	    -27.12485721	    709.43549553	    -69.80944185	     43.69957640	      1.31393355	     -6.02071750	    -54.20555455	   -238.78592205	    -54.78237162	      8.21627652	     -1.22547152	     -2.83519813	     54.20555455	    238.78592205	     54.78237162	    -28.36960238	      0.88785228	     24.24794263	     32.46654988	     36.65982494	      0.00000000	      0.00000000	      0.00000000	     -3.36738535	      9.31624722	      0.00000000	      0.00000000	      0.00000000	      0.00000000	      0.00000000	      0.00000001	      0.00000000
      0.04197552	      0.00000000	      0.00000000	      0.00000000	      7.98432313	      9.30149740	      0.00000000	      0.00000000	    273.58826090	    264.51407449	    452.94800529	    137.56775086	     19.75449434	     13.59098868	      0.00000000	      0.00000000	     10.83018543	      4.47436041	      0.00000000	    129.35168790	      0.00000000	      0.00000000	     13.50092509	     48.93228076	     42.88549081	      0.00000000	      6.09283044	      0.00000000	     45.93050586	      0.00000000	      0.00000000	      0.00000000	      0.00000000	      0.00000000	      0.00000000	     31.76495031	      0.00000000	      0.00000000	      0.00000000	     25.81215405	     55.96823130	      6.92218654	      8.73462777	      1.62840346	      0.00000000	      0.00000000	      0.00000000	      7.98432313	      9.30149740	      0.00000000	      0.00000000	     15.17387422	      0.00000000	     24.55600437	      5.01413256	     19.75449434	     13.59098868	      0.00000000	      0.00000000	     10.83018543	      8.79870737	      0.00000000	      5.24402075	      0.00000000	      0.00000000	     13.50092509	     48.93228076	     42.88549081	      0.00000000	      6.09283044	      0.00000000	     22.30047278	      0.00000000	      0.00000000	      0.00000000	      0.00000000	      0.00000000	      0.00000000	     55.24798714	      2.98143052	      0.00000000	      0.00000000	      3.91554131	     16.12549900	      5.16012586	      8.17108187	      3.09758714	     83.14855873	     83.14855873	     31.86381158	     31.86381158	     48.62986319	     48.62986319	    106.50472408	    178.84239890	     20.35371950	    -12.91421251	      2.69573462	     44.81523820	   -106.50472408	   -178.84239890	    -20.35371950	      5.75292078	     -3.13686601	     -3.46631439	     16.00553929	    141.49971474	     20.01040360	     -5.30066671	     -0.29010142	      6.90267122	    -16.00553929	   -141.49971474	    -20.01040360	     -1.86374438	      0.17661520	     -0.36964306	     38.17750407	   -697.52707879	     70.46171079	    -14.18005598	     -1.17813758	     -1.69780235	    -38.17750407	    697.52707879	    -70.46171079	     43.72437732	      1.51211664	    -11.00369176	    -56.35382262	   -272.52138265	    -62.02733418	      9.36672174	     -1.28098601	     -2.93766896	     56.35382262	    272.52138265	     62.02733418	    -32.17420805	      0.90487407	     25.31147566	     32.91812953	     36.56295468	      0.00000000	      0.00000000	      0.00000000	     -3.43882169	      7.84281132	      0.00000000	      0.00000000	      0.00000000	      0.00000000	      0.00000000	      0.00000001	      0.00000000
      0.04302934	      0.00000000	      0.00000000	      0.00000000	      8.24400191	      9.32862346	      0.00000000	      0.00000000	    273.24971822	    278.00154624	    452.63955127	    137.93625043	     19.54591936	     13.45468597	      0.00000000	      0.00000000	     10.99041762	      4.44034732	      0.00000000	    129.47169075	      0.00000000	      3.20339366	     13.47702340	     48.53608789	     42.43074257	      0.00000000	      6.11604702	      0.00000000	     49.43495509	      0.00000000	      0.00000000	      0.00000000	      0.00000000	      0.00000000	      0.00000000	     31.06231875	      0.00000000	      0.00000000	      0.00000000	     25.12210197	     56.43990120	      7.10912362	      8.65405816	      1.54284048	      0.00000000	      0.00000000	      0.00000000	      8.24400191	      9.32862346	      0.00000000	      0.00000000	     15.00797772	      0.00000000	     24.30332073	      4.96365834	     19.54591936	     13.45468597	      0.00000000	      0.00000000	     10.99041762	      8.79654544	      0.00000000	      5.19052660	      0.00000000	      3.20339366	     13.47702340	     48.53608789	     42.43074257	      0.00000000	      6.11604702	      0.00000000	     23.00959877	      0.00000000	      0.00000000	      0.00000000	      0.00000000	      0.00000000	      0.00000000	     55.63563048	      3.31103415	      0.11493408	      0.00000000	      4.46377503	     16.54561840	      5.23565421	      8.00778596	      2.95592235	     82.30706120	     82.30706120	     31.59398690	     31.59398690	     48.29769376	     48.29769376	    109.14990945	    185.25452169	     18.86024649	    -12.43347567	      2.75467518	     45.93128960	   -109.14990945	   -185.25452169	    -18.86024649	      5.86911356	     -3.20395899	     -3.52827079	     16.84313319	    139.68434984	     17.49146644	     -4.27845520	     -0.30168223	      7.21314604	    -16.84313319	   -139.68434984	    -17.49146644	     -1.92554317	      0.18982370	     -0.34581693	     35.43555377	   -683.25136694	     77.03498207	    -14.22231373	     -1.13422793	     -1.53111096	    -35.43555377	    683.25136694	    -77.03498207	     46.23589722	      1.48691693	    -10.06678650	    -60.95767644	   -296.00041658	    -64.53107683	     10.06504843	     -1.40609717	     -3.12272013	     60.95767644	    296.00041658	     64.53107683	    -33.74568168	      0.99768661	     27.36539752	     34.50364030	     37.80219460	      0.00000000	      0.00000000	      0.00000000	     -3.31045354	      7.02398755	      0.00000000	      0.00000000	      0.00000000	      0.00000000	      0.00000000	      0.00000001	      0.00000000
